<mxfile host="Electron" agent="Mozilla/5.0 (X11; Linux x86_64) AppleWebKit/537.36 (KHTML, like Gecko) draw.io/26.1.1 Chrome/132.0.6834.210 Electron/34.3.3 Safari/537.36" version="26.1.1">
  <diagram name="GreenRoots Use Cases" id="use-cases">
    <mxGraphModel dx="1434" dy="879" grid="1" gridSize="10" guides="1" tooltips="1" connect="1" arrows="1" fold="1" page="1" pageScale="1" pageWidth="1169" pageHeight="827" background="#FFFFFF" math="0" shadow="0">
      <root>
        <mxCell id="0" />
        <mxCell id="1" parent="0" />
        <mxCell id="system-boundary" value="GreenRoots" style="swimlane;whiteSpace=wrap;html=1;strokeWidth=2;fillColor=#f8f9fa;fontStyle=1;fontSize=14;" parent="1" vertex="1">
          <mxGeometry x="120" y="10" width="1040" height="810" as="geometry" />
        </mxCell>
        <mxCell id="uc-landing" value="Découvrir GreenRoots" style="ellipse;whiteSpace=wrap;html=1;fillColor=#e1f5fe;" parent="system-boundary" vertex="1">
          <mxGeometry x="90" y="30" width="120" height="60" as="geometry" />
        </mxCell>
        <mxCell id="uc-catalog" value="Consulter catalogue" style="ellipse;whiteSpace=wrap;html=1;fillColor=#e1f5fe;" parent="system-boundary" vertex="1">
          <mxGeometry x="320" y="40" width="120" height="60" as="geometry" />
        </mxCell>
        <mxCell id="uc-product" value="Consulter produit" style="ellipse;whiteSpace=wrap;html=1;fillColor=#e1f5fe;" parent="system-boundary" vertex="1">
          <mxGeometry x="660" y="30" width="120" height="60" as="geometry" />
        </mxCell>
        <mxCell id="uc-filter" value="Filtrer catalogue" style="ellipse;whiteSpace=wrap;html=1;fillColor=#e1f5fe;" parent="system-boundary" vertex="1">
          <mxGeometry x="900" y="100" width="120" height="60" as="geometry" />
        </mxCell>
        <mxCell id="uc-locations" value="Consulter localisations" style="ellipse;whiteSpace=wrap;html=1;fillColor=#e1f5fe;" parent="system-boundary" vertex="1">
          <mxGeometry x="740" y="150" width="120" height="60" as="geometry" />
        </mxCell>
        <mxCell id="uc-cart" value="Gérer panier" style="ellipse;whiteSpace=wrap;html=1;fillColor=#fff3e0;" parent="system-boundary" vertex="1">
          <mxGeometry x="570" y="270" width="120" height="60" as="geometry" />
        </mxCell>
        <mxCell id="uc-add-cart" value="Ajouter au panier" style="ellipse;whiteSpace=wrap;html=1;fillColor=#fff8e1;" parent="system-boundary" vertex="1">
          <mxGeometry x="330" y="370" width="100" height="50" as="geometry" />
        </mxCell>
        <mxCell id="uc-modify-cart" value="Modifier panier" style="ellipse;whiteSpace=wrap;html=1;fillColor=#fff8e1;" parent="system-boundary" vertex="1">
          <mxGeometry x="490" y="420" width="100" height="50" as="geometry" />
        </mxCell>
        <mxCell id="uc-view-cart" value="Consulter panier" style="ellipse;whiteSpace=wrap;html=1;fillColor=#fff8e1;" parent="system-boundary" vertex="1">
          <mxGeometry x="650" y="450" width="100" height="50" as="geometry" />
        </mxCell>
        <mxCell id="uc-register" value="S&#39;inscrire" style="ellipse;whiteSpace=wrap;html=1;fillColor=#f3e5f5;" parent="system-boundary" vertex="1">
          <mxGeometry x="740" y="240" width="120" height="60" as="geometry" />
        </mxCell>
        <mxCell id="uc-login" value="Se connecter" style="ellipse;whiteSpace=wrap;html=1;fillColor=#f3e5f5;" parent="system-boundary" vertex="1">
          <mxGeometry x="890" y="200" width="120" height="60" as="geometry" />
        </mxCell>
        <mxCell id="uc-order" value="Passer commande" style="ellipse;whiteSpace=wrap;html=1;fillColor=#e8f5e8;" parent="system-boundary" vertex="1">
          <mxGeometry x="900" y="550" width="120" height="60" as="geometry" />
        </mxCell>
        <mxCell id="uc-orders-history" value="Consulter historique commandes" style="ellipse;whiteSpace=wrap;html=1;fillColor=#e8f5e8;" parent="system-boundary" vertex="1">
          <mxGeometry x="900" y="730" width="120" height="60" as="geometry" />
        </mxCell>
        <mxCell id="uc-track-order" value="Suivre commande" style="ellipse;whiteSpace=wrap;html=1;fillColor=#e8f5e8;" parent="system-boundary" vertex="1">
          <mxGeometry x="900" y="640" width="120" height="60" as="geometry" />
        </mxCell>
        <mxCell id="uc-manage-stock" value="Gérer stocks" style="ellipse;whiteSpace=wrap;html=1;fillColor=#ffebee;" parent="system-boundary" vertex="1">
          <mxGeometry x="170" y="571" width="120" height="60" as="geometry" />
        </mxCell>
        <mxCell id="uc-manage-orders" value="Gérer commandes" style="ellipse;whiteSpace=wrap;html=1;fillColor=#ffebee;" parent="system-boundary" vertex="1">
          <mxGeometry x="180" y="681" width="120" height="60" as="geometry" />
        </mxCell>
        <mxCell id="uc-manage-products" value="Gérer produits" style="ellipse;whiteSpace=wrap;html=1;fillColor=#ffebee;" parent="system-boundary" vertex="1">
          <mxGeometry x="440" y="621" width="120" height="60" as="geometry" />
        </mxCell>
        <mxCell id="uc-add-product" value="Ajouter produit" style="ellipse;whiteSpace=wrap;html=1;fillColor=#fce4ec;" parent="system-boundary" vertex="1">
          <mxGeometry x="340" y="751" width="100" height="50" as="geometry" />
        </mxCell>
        <mxCell id="uc-edit-product" value="Modifier produit" style="ellipse;whiteSpace=wrap;html=1;fillColor=#fce4ec;" parent="system-boundary" vertex="1">
          <mxGeometry x="530" y="751" width="100" height="50" as="geometry" />
        </mxCell>
        <mxCell id="uc-delete-product" value="Supprimer produit" style="ellipse;whiteSpace=wrap;html=1;fillColor=#fce4ec;" parent="system-boundary" vertex="1">
          <mxGeometry x="730" y="751" width="100" height="50" as="geometry" />
        </mxCell>
        <mxCell id="include-add-product" value="&amp;lt;&amp;lt;include&amp;gt;&amp;gt;" style="endArrow=open;endSize=12;dashed=1;html=1;exitX=0.5;exitY=1;exitDx=0;exitDy=0;entryX=0.5;entryY=0;entryDx=0;entryDy=0;" parent="system-boundary" source="uc-manage-products" target="uc-add-product" edge="1">
          <mxGeometry width="160" relative="1" as="geometry" />
        </mxCell>
        <mxCell id="include-edit-product" value="&amp;lt;&amp;lt;include&amp;gt;&amp;gt;" style="endArrow=open;endSize=12;dashed=1;html=1;exitX=0.5;exitY=1;exitDx=0;exitDy=0;entryX=0.5;entryY=0;entryDx=0;entryDy=0;" parent="system-boundary" source="uc-manage-products" target="uc-edit-product" edge="1">
          <mxGeometry width="160" relative="1" as="geometry" />
        </mxCell>
        <mxCell id="include-delete-product" value="&amp;lt;&amp;lt;include&amp;gt;&amp;gt;" style="endArrow=open;endSize=12;dashed=1;html=1;exitX=0.5;exitY=1;exitDx=0;exitDy=0;entryX=0;entryY=0;entryDx=0;entryDy=0;" parent="system-boundary" source="uc-manage-products" target="uc-delete-product" edge="1">
          <mxGeometry width="160" relative="1" as="geometry" />
        </mxCell>
        <mxCell id="5oepOwK3Y0EhHKwIVIV8-1" value="Consulter projets" style="ellipse;whiteSpace=wrap;html=1;fillColor=#e1f5fe;" parent="system-boundary" vertex="1">
          <mxGeometry x="780" y="70" width="120" height="60" as="geometry" />
        </mxCell>
        <mxCell id="actor-visitor" value="Visiteur" style="shape=umlActor;verticalLabelPosition=bottom;verticalAlign=top;html=1;outlineConnect=0;fillColor=#e3f2fd;" parent="1" vertex="1">
          <mxGeometry x="50" y="200" width="30" height="60" as="geometry" />
        </mxCell>
        <mxCell id="actor-member" value="Membre" style="shape=umlActor;verticalLabelPosition=bottom;verticalAlign=top;html=1;outlineConnect=0;fillColor=#e8f5e8;" parent="1" vertex="1">
          <mxGeometry x="50" y="350" width="30" height="60" as="geometry" />
        </mxCell>
        <mxCell id="actor-admin" value="Administrateur" style="shape=umlActor;verticalLabelPosition=bottom;verticalAlign=top;html=1;outlineConnect=0;fillColor=#ffebee;" parent="1" vertex="1">
          <mxGeometry x="50" y="600" width="30" height="60" as="geometry" />
        </mxCell>
        <mxCell id="inheritance-member" value="" style="endArrow=block;endFill=0;html=1;edgeStyle=orthogonalEdgeStyle;align=left;verticalAlign=top;exitX=0.5;exitY=0;exitDx=0;exitDy=0;exitPerimeter=0;entryX=0.5;entryY=1;entryDx=0;entryDy=0;entryPerimeter=0;" parent="1" source="actor-member" target="actor-visitor" edge="1">
          <mxGeometry x="-1" relative="1" as="geometry" />
        </mxCell>
        <mxCell id="inheritance-admin" value="" style="endArrow=block;endFill=0;html=1;edgeStyle=orthogonalEdgeStyle;align=left;verticalAlign=top;exitX=0.5;exitY=0;exitDx=0;exitDy=0;exitPerimeter=0;entryX=0.5;entryY=1;entryDx=0;entryDy=0;entryPerimeter=0;" parent="1" source="actor-admin" target="actor-member" edge="1">
          <mxGeometry x="-1" relative="1" as="geometry" />
        </mxCell>
        <mxCell id="visitor-landing" value="" style="endArrow=none;html=1;exitX=1;exitY=0.3333333333333333;exitDx=0;exitDy=0;exitPerimeter=0;entryX=0;entryY=0.5;entryDx=0;entryDy=0;" parent="1" source="actor-visitor" target="uc-landing" edge="1">
          <mxGeometry relative="1" as="geometry" />
        </mxCell>
        <mxCell id="visitor-catalog" value="" style="endArrow=none;html=1;exitX=1;exitY=0.3333333333333333;exitDx=0;exitDy=0;exitPerimeter=0;entryX=0;entryY=0.5;entryDx=0;entryDy=0;" parent="1" source="actor-visitor" target="uc-catalog" edge="1">
          <mxGeometry relative="1" as="geometry" />
        </mxCell>
        <mxCell id="visitor-product" value="" style="endArrow=none;html=1;exitX=1;exitY=0.3333333333333333;exitDx=0;exitDy=0;exitPerimeter=0;entryX=0;entryY=0.5;entryDx=0;entryDy=0;" parent="1" source="actor-visitor" target="uc-product" edge="1">
          <mxGeometry relative="1" as="geometry" />
        </mxCell>
        <mxCell id="visitor-filter" value="" style="endArrow=none;html=1;exitX=1;exitY=0.3333333333333333;exitDx=0;exitDy=0;exitPerimeter=0;entryX=0;entryY=0.5;entryDx=0;entryDy=0;" parent="1" source="actor-visitor" target="uc-filter" edge="1">
          <mxGeometry relative="1" as="geometry" />
        </mxCell>
        <mxCell id="visitor-locations" value="" style="endArrow=none;html=1;exitX=1;exitY=0.3333333333333333;exitDx=0;exitDy=0;exitPerimeter=0;entryX=0;entryY=0.5;entryDx=0;entryDy=0;" parent="1" source="actor-visitor" target="uc-locations" edge="1">
          <mxGeometry relative="1" as="geometry" />
        </mxCell>
        <mxCell id="visitor-cart" value="" style="endArrow=none;html=1;exitX=1;exitY=0.3333333333333333;exitDx=0;exitDy=0;exitPerimeter=0;entryX=0;entryY=0.5;entryDx=0;entryDy=0;" parent="1" source="actor-visitor" target="uc-cart" edge="1">
          <mxGeometry relative="1" as="geometry" />
        </mxCell>
        <mxCell id="visitor-register" value="" style="endArrow=none;html=1;exitX=1;exitY=0.3333333333333333;exitDx=0;exitDy=0;exitPerimeter=0;entryX=0;entryY=0.5;entryDx=0;entryDy=0;" parent="1" source="actor-visitor" target="uc-register" edge="1">
          <mxGeometry relative="1" as="geometry" />
        </mxCell>
        <mxCell id="visitor-login" value="" style="endArrow=none;html=1;exitX=1;exitY=0.3333333333333333;exitDx=0;exitDy=0;exitPerimeter=0;entryX=0;entryY=0.5;entryDx=0;entryDy=0;" parent="1" source="actor-visitor" target="uc-login" edge="1">
          <mxGeometry relative="1" as="geometry" />
        </mxCell>
        <mxCell id="member-order" value="" style="endArrow=none;html=1;exitX=1;exitY=0.3333333333333333;exitDx=0;exitDy=0;exitPerimeter=0;entryX=0;entryY=0.5;entryDx=0;entryDy=0;" parent="1" source="actor-member" target="uc-order" edge="1">
          <mxGeometry relative="1" as="geometry" />
        </mxCell>
        <mxCell id="member-history" value="" style="endArrow=none;html=1;exitX=1;exitY=0.3333333333333333;exitDx=0;exitDy=0;exitPerimeter=0;entryX=0;entryY=0.5;entryDx=0;entryDy=0;" parent="1" source="actor-member" target="uc-orders-history" edge="1">
          <mxGeometry relative="1" as="geometry" />
        </mxCell>
        <mxCell id="member-track" value="" style="endArrow=none;html=1;exitX=1;exitY=0.3333333333333333;exitDx=0;exitDy=0;exitPerimeter=0;entryX=0;entryY=0.5;entryDx=0;entryDy=0;" parent="1" source="actor-member" target="uc-track-order" edge="1">
          <mxGeometry relative="1" as="geometry" />
        </mxCell>
        <mxCell id="admin-products" value="" style="endArrow=none;html=1;exitX=1;exitY=0.3333333333333333;exitDx=0;exitDy=0;exitPerimeter=0;entryX=0;entryY=0.5;entryDx=0;entryDy=0;" parent="1" source="actor-admin" target="uc-manage-products" edge="1">
          <mxGeometry relative="1" as="geometry" />
        </mxCell>
        <mxCell id="admin-stock" value="" style="endArrow=none;html=1;exitX=1;exitY=0.3333333333333333;exitDx=0;exitDy=0;exitPerimeter=0;entryX=0;entryY=0.5;entryDx=0;entryDy=0;" parent="1" source="actor-admin" target="uc-manage-stock" edge="1">
          <mxGeometry relative="1" as="geometry" />
        </mxCell>
        <mxCell id="admin-orders" value="" style="endArrow=none;html=1;exitX=1;exitY=0.3333333333333333;exitDx=0;exitDy=0;exitPerimeter=0;entryX=0;entryY=0.5;entryDx=0;entryDy=0;" parent="1" source="actor-admin" target="uc-manage-orders" edge="1">
          <mxGeometry relative="1" as="geometry" />
        </mxCell>
        <mxCell id="include-add-cart" value="&amp;lt;&amp;lt;include&amp;gt;&amp;gt;" style="endArrow=open;endSize=12;dashed=1;html=1;exitX=0.5;exitY=1;exitDx=0;exitDy=0;entryX=0.5;entryY=0;entryDx=0;entryDy=0;" parent="1" source="uc-cart" target="uc-add-cart" edge="1">
          <mxGeometry width="160" relative="1" as="geometry" />
        </mxCell>
        <mxCell id="include-modify-cart" value="&amp;lt;&amp;lt;include&amp;gt;&amp;gt;" style="endArrow=open;endSize=12;dashed=1;html=1;exitX=0.5;exitY=1;exitDx=0;exitDy=0;entryX=0.5;entryY=0;entryDx=0;entryDy=0;" parent="1" source="uc-cart" target="uc-modify-cart" edge="1">
          <mxGeometry width="160" relative="1" as="geometry" />
        </mxCell>
        <mxCell id="include-view-cart" value="&amp;lt;&amp;lt;include&amp;gt;&amp;gt;" style="endArrow=open;endSize=12;dashed=1;html=1;exitX=0.5;exitY=1;exitDx=0;exitDy=0;entryX=0.5;entryY=0;entryDx=0;entryDy=0;" parent="1" source="uc-cart" target="uc-view-cart" edge="1">
          <mxGeometry width="160" relative="1" as="geometry" />
        </mxCell>
        <mxCell id="extend-order" value="&amp;lt;&amp;lt;extend&amp;gt;&amp;gt;" style="endArrow=open;endSize=12;dashed=1;html=1;exitX=1;exitY=0.5;exitDx=0;exitDy=0;entryX=0;entryY=0.5;entryDx=0;entryDy=0;" parent="1" source="uc-cart" target="uc-order" edge="1">
          <mxGeometry width="160" relative="1" as="geometry" />
        </mxCell>
        <mxCell id="extend-login-required" value="&amp;lt;&amp;lt;extend&amp;gt;&amp;gt;" style="endArrow=open;endSize=12;dashed=1;html=1;exitX=0.5;exitY=0;exitDx=0;exitDy=0;entryX=0.5;entryY=1;entryDx=0;entryDy=0;" parent="1" source="uc-order" target="uc-login" edge="1">
          <mxGeometry width="160" relative="1" as="geometry" />
        </mxCell>
        <mxCell id="5oepOwK3Y0EhHKwIVIV8-3" value="" style="endArrow=none;html=1;entryX=0;entryY=0.5;entryDx=0;entryDy=0;" parent="1" target="5oepOwK3Y0EhHKwIVIV8-1" edge="1">
          <mxGeometry relative="1" as="geometry">
            <mxPoint x="80" y="220" as="sourcePoint" />
            <mxPoint x="1010" y="80" as="targetPoint" />
          </mxGeometry>
        </mxCell>
      </root>
    </mxGraphModel>
  </diagram>
</mxfile>
